<?xml version="1.0" encoding="UTF-8"?> <svg xmlns="http://www.w3.org/2000/svg" id="Layer_1" data-name="Layer 1" viewBox="0 0 806.38 340.39"> <defs> <style>.cls-1{fill:#fff;}.cls-2{fill:#333e48;}</style> </defs> <path d="M114.69 114.2v112a56 56 0 0 0 0-112zm64.13 0v112a56 56 0 1 0 0-112z" class="cls-1"></path> <path d="M311.14 147.6h14.94c14.55 0 26.74 6.19 26.74 22.72 0 14.62-11.94 22.47-25.4 22.47h-16.28zm10 36h5.17c9.25 0 16.21-3.51 16.21-13.79 0-8.87-7.08-13-15.51-13h-5.91zm41.86-36h10v45.19h-10zm22.5 0H403c9.25 0 17 3.19 17 13.72 0 6.32-3.38 11.23-9.77 12.38l11.49 19.08h-11.91l-9.45-18.06h-4.92v18.06h-10zm10 18.7h5.87c3.64 0 8.36-.13 8.36-5 0-4.53-4.08-5.23-7.72-5.23h-6.51zm34.87-18.7h14.93c14.55 0 26.74 6.19 26.74 22.72 0 14.62-11.94 22.47-25.4 22.47h-16.27zm10 36h5.17c9.25 0 16.21-3.51 16.21-13.79 0-8.87-7.08-13-15.51-13h-5.87zm94.16-16.09v22.28c-4.4 2.68-11.62 4.15-17.11 4.15-15.32 0-24.19-10.91-24.19-23.74 0-13.4 9.77-23.74 23.55-23.74 8.3 0 13.34 2.23 16.85 5.87L529.3 157a17.12 17.12 0 0 0-12.51-4.79c-10.34 0-17 8.11-17 18 0 10.21 7.59 18 17.55 18 4.28 0 8.36-.83 11.11-2.36v-12.59h-10v-5.74zm14.68-19.91h15.89c11.55 0 14.49 7 14.49 12.64a12.12 12.12 0 0 1-11.11 11.94l12.83 20.62h-7.66l-11.49-19.91h-6.83v19.91h-6.13zm6.13 19.92h8c4.85 0 9.7-1.15 9.7-7.28s-4.85-7.28-9.7-7.28h-8zm30.06 2.67c0-13.4 9.77-23.74 23.55-23.74s23.55 10.34 23.55 23.74-9.77 23.74-23.55 23.74-23.55-10.33-23.55-23.74zm40.59 0c0-9.89-6.7-18-17-18s-17 8.11-17 18 6.7 18 17 18 17.01-8.1 17.01-18zm21.76-22.59v27.7c0 5.62 2.81 12.89 11.36 12.89s11.36-7.28 11.36-12.89v-27.7h6.13v28.66c0 10.47-7.6 17.68-17.49 17.68s-17.49-7.21-17.49-17.68V147.6zm43.15 0h15.89c11.55 0 14.49 7 14.49 12.64s-2.94 12.64-14.49 12.64H697v19.91h-6.1zm6.1 19.91h8c4.85 0 9.7-1.15 9.7-7.28s-4.85-7.28-9.7-7.28h-8zM85.1 85.1v170.2h170.2V85.1zm29.59 141.09v-112a56 56 0 1 1 0 112zm64.13 0v-112a56 56 0 1 1 0 112z" class="cls-2"></path> </svg> 