<svg id="DIRD_TEXTILE_COMPOSITE_LTD." xmlns="http://www.w3.org/2000/svg" viewBox="0 0 753 181.2"><style>.st0{fill:#002D5C;} .st1{fill:#FFFFFF;}</style><path class="st0" d="M225.2 62.5H243c9.4 0 17.4 3.3 17.4 14 0 6.4-3.5 11.4-9.9 12.6l11.7 19.4H250l-9.6-18.4h-5v18.4h-10.1v-46zm10.2 19h6c3.7 0 8.5-.1 8.5-5.1 0-4.6-4.2-5.3-7.9-5.3h-6.6v10.4zm50.7-19h8.4l20 46H303l-4-9.8h-17.8l-3.8 9.8h-11.2l19.9-46zm3.9 13.4l-5.6 14.3h11.3L290 75.9zm24.1-13.4h11.6L337 92.7h.1l11.6-30.2h10.9l-19 46h-8.1l-18.4-46zm54.3 0h31.3v9.4h-21.1v8.6h20v9.4h-20v9.4h22.3v9.4h-32.4V62.5zm44.1 0h13.8l19.6 32h.1v-32h10.1v46h-13.3l-20.1-32.7h-.1v32.8h-10.1V62.5zm-186.9 99.4c1.5 2.2 4.1 3.5 6.8 3.4 2.8 0 6.4-1.8 6.4-5.3 0-7.3-15.7-2.8-15.7-15.2 0-3.7 3.1-8.9 10.8-8.9 3.5 0 6.8.7 9.2 3.6l-3.5 3.2c-1.3-1.8-3.4-2.9-5.7-2.8-4.8 0-6.2 2.9-6.2 4.9 0 8.1 15.7 3.2 15.7 14.7 0 6.2-5 9.9-11.1 9.9-4.1 0-8-1.4-10.2-4.4l3.5-3.1zm23-14.7h4.7l6.3 16.6h.1l6-16.6h4.4L260 173.1c-1.4 3.7-2.8 6.2-7.3 6.2-1.2 0-2.4-.2-3.6-.6l.5-3.7c.8.3 1.6.5 2.4.5 2.6 0 3.3-1.4 4.1-3.5l1.3-3.4-8.8-21.4zm38.8 5.4c-1-1.4-2.7-2.1-4.4-2.1-1.9 0-3.5.9-3.5 2.4 0 2.6 3.6 2.9 5.4 3.3 3.5.9 6.2 2.2 6.2 6.2 0 4.8-4.4 6.7-8.6 6.7-3.5 0-6.1-.9-8.2-3.8l3.1-2.5c1.3 1.5 3.2 2.4 5.2 2.5 2.1 0 4.3-.9 4.3-2.7 0-2.4-3.4-2.9-5.1-3.3-3.5-.9-6.5-2-6.5-6.1 0-4.4 4.1-6.6 8.1-6.6 2.8 0 5.8 1 7.3 3.5l-3.3 2.5zm22.6-1.9h-5.8v9.7c0 2.4 0 4.9 3.1 4.9 1 0 2-.2 2.9-.6v3.7c-1.2.5-2.4.7-3.6.7-6.3 0-6.3-3.8-6.3-7.3v-11.1h-4.7v-3.5h4.7v-6h4v6h5.8v3.5zm10.7 8.7c0 3.7 3.5 6.2 7.2 6.2 2.5 0 4.3-1.3 5.9-3.2l3.1 2.3c-2.2 2.9-5.8 4.6-9.5 4.4-6.8 0-11-4.9-11-11.2-.2-6 4.4-11 10.4-11.2h.6c7.5 0 10.4 5.8 10.4 11.3v1.4h-17.1zm12.8-3.3c-.1-3.6-2.1-6.2-6.2-6.2-3.5 0-6.4 2.7-6.6 6.2h12.8zm11.7-8.9h3.8v3.3h.1c.4-1.3 3-3.9 6.8-3.9 2.8-.2 5.5 1.4 6.7 4 1.4-2.5 3.9-4 6.8-4 6.6 0 8.1 4.7 8.1 9.4v12.4h-4v-11.9c0-3.2-.7-6.2-4.6-6.2s-5.5 2.6-5.5 6.4v11.6h-4v-11.1c0-4-.6-6.9-4.5-6.9-2.9 0-5.5 2.2-5.5 7v11.1h-4l-.2-21.2zm70.8-10.5h4.3v27.8H435v4h-19v-31.8zm36.2 14h-5.8v9.7c0 2.4 0 4.9 3.1 4.9 1 0 2-.2 2.9-.6v3.7c-1.2.5-2.4.7-3.6.7-6.3 0-6.4-3.8-6.4-7.3v-11.1h-4.7v-3.5h4.7v-6h4v6h5.8v3.5zm29.1 17.8h-4v-3.1h-.1c-1.8 2.3-4.5 3.7-7.4 3.6-6.6 0-10.8-4.9-10.8-11.2s4.3-11.2 10.8-11.2c2.9-.1 5.7 1.3 7.4 3.6h.1v-15.8h4v34.1zm-4.1-10.6c0-4.3-2.7-7.4-7-7.4s-7 3.1-7 7.4 2.7 7.4 7 7.4 7-3.1 7-7.4zm12.9 7.9c0-1.7 1.3-3 3-3s3 1.3 3 3-1.3 3-3 3-3-1.3-3-3z"/><path class="st1" d="M29.6 29.1v112c30.9 0 56-25.1 56-56s-25.1-56-56-56zm64.1 0v112c30.9 0 56-25.1 56-56s-25.1-56-56-56z"/><path class="st0" d="M0 0v170.2h170.2V0H0zm29.6 141.1v-112c30.9 0 56 25.1 56 56s-25.1 56-56 56zm64.1 0v-112c30.9 0 56 25.1 56 56s-25.1 56-56 56zm303.2 12c-1-1.4-2.7-2.1-4.4-2.1-1.9 0-3.5.9-3.5 2.4 0 2.6 3.6 2.9 5.4 3.3 3.5.9 6.2 2.2 6.2 6.2 0 4.8-7.1 6.7-8.6 6.7-3.5 0-6.1-.9-8.2-3.8l3.1-2.5c1.3 1.5 3.2 2.4 5.2 2.5 2.1 0 4.3-.9 4.3-2.7 0-2.4-3.4-2.9-5.1-3.3-3.5-.9-6.5-2-6.5-6.1 0-4.4 4.1-6.6 8.1-6.6 2.8 0 5.8 1 7.3 3.5l-3.3 2.5z"/></svg>